# xmcd CD database file
# Copyright (C) 1993-1999 CDDB, Inc.
# Track frame offsets: 
# 150
# 23927
# 44554
# 64656
# 84158
# 110110
# 129462
# 146114
# 163741
# 187593
# 210995
# 229897
# 250449
# 275726
# 299128
# 
# Disc length: 4306 seconds
# Revision: 1
# Processed by: cddbd v1.4PL0 Copyright (c) Steve Scherf et al.
# Submitted via: MusicMatchJukebox 5.00.0142
# 
DISCID=e610d00f
DTITLE=Bone Thugs-N-Harmony - BTNHResurrection
DYEAR=1900
DGENRE=
TTITLE0=Show 'Em (Feat Flesh-N-Bone)
TTITLE1=The Righteous One (Feat Flesh-NBone)
TTITLE2=Two Glocks
TTITLE3=Battlezone
TTITLE4=X-Tasy (Featg Flesh-N-Bone)
TTITLE5=Murda One
TTITLE6=Souljah's Marching (Feat Flesh-N-Bone)
TTITLE7=Serving The Fiends (Feat Flesh-N-Bone)
TTITLE8=Ressurrection (Paper, Paper) (Feat Flesh-N-Bone)
TTITLE9=Cant Give It Up
TTITLE10=Weed Song
TTITLE11=Change The World (Feat Big B)
TTITLE12=Dont Worry
TTITLE13=Mind On Money
TTITLE14=No Way Out (Feat Flesh-N-Bone)
EXTD=
EXTT0=
EXTT1=
EXTT2=
EXTT3=
EXTT4=
EXTT5=
EXTT6=
EXTT7=
EXTT8=
EXTT9=
EXTT10=
EXTT11=
EXTT12=
EXTT13=
EXTT14=
PLAYORDER=
